<svg width="28" height="23" viewBox="0 0 28 23" fill="none" xmlns="http://www.w3.org/2000/svg">
<path fill-rule="evenodd" clip-rule="evenodd" d="M8.22818 0.069C9.72109 0.0125454 10.1971 0 14 0C17.8029 0 18.2789 0.0135909 19.7705 0.069C21.2622 0.124409 22.2804 0.319909 23.1713 0.603227C24.1042 0.892818 24.9505 1.3455 25.6505 1.93095C26.3633 2.50491 26.9131 3.19909 27.2644 3.96645C27.6105 4.69827 27.8473 5.53464 27.916 6.75782C27.9847 7.98623 28 8.37723 28 11.5C28 14.6238 27.9835 15.0148 27.916 16.2411C27.8485 17.4643 27.6105 18.3007 27.2644 19.0325C26.9131 19.8 26.3624 20.4953 25.6505 21.0701C24.9505 21.6555 24.1042 22.1072 23.1713 22.3957C22.2804 22.6801 21.2622 22.8745 19.7731 22.931C18.2789 22.9875 17.8029 23 14 23C10.1971 23 9.72109 22.9864 8.22818 22.931C6.73909 22.8756 5.72091 22.6801 4.83 22.3957C3.89572 22.1071 3.04923 21.6548 2.34945 21.0701C1.63721 20.4958 1.08604 19.8008 0.734364 19.0335C0.389455 18.3017 0.152727 17.4654 0.084 16.2422C0.0152727 15.0138 0 14.6228 0 11.5C0 8.37618 0.0165454 7.98518 0.084 6.75991C0.151455 5.53464 0.389455 4.69827 0.734364 3.96645C1.08656 3.19918 1.63815 2.50419 2.35073 1.92991C3.04951 1.34498 3.89515 0.892236 4.82873 0.603227C5.71964 0.319909 6.73782 0.125455 8.22691 0.069H8.22818ZM19.6573 2.139C18.1809 2.08359 17.738 2.07209 14 2.07209C10.262 2.07209 9.81909 2.08359 8.34273 2.139C6.97709 2.19023 6.23636 2.37736 5.74255 2.53523C5.08964 2.74432 4.62255 2.99209 4.13255 3.39459C3.66806 3.76578 3.31059 4.21766 3.08636 4.71709C2.89418 5.12273 2.66636 5.73118 2.604 6.85295C2.53655 8.06568 2.52255 8.4295 2.52255 11.5C2.52255 14.5705 2.53655 14.9343 2.604 16.147C2.66636 17.2688 2.89418 17.8773 3.08636 18.2829C3.31036 18.7816 3.668 19.2343 4.13255 19.6054C4.58436 19.987 5.13545 20.2808 5.74255 20.4648C6.23636 20.6226 6.97709 20.8098 8.34273 20.861C9.81909 20.9164 10.2607 20.9279 14 20.9279C17.7393 20.9279 18.1809 20.9164 19.6573 20.861C21.0229 20.8098 21.7636 20.6226 22.2575 20.4648C22.9104 20.2557 23.3775 20.0079 23.8675 19.6054C24.332 19.2343 24.6896 18.7816 24.9136 18.2829C25.1058 17.8773 25.3336 17.2688 25.396 16.147C25.4635 14.9343 25.4775 14.5705 25.4775 11.5C25.4775 8.4295 25.4635 8.06568 25.396 6.85295C25.3336 5.73118 25.1058 5.12273 24.9136 4.71709C24.6591 4.18077 24.3575 3.79709 23.8675 3.39459C23.4155 3.01307 22.8654 2.71945 22.2575 2.53523C21.7636 2.37736 21.0229 2.19023 19.6573 2.139ZM12.2118 15.0451C13.2105 15.3866 14.3225 15.4327 15.3579 15.1755C16.3933 14.9184 17.288 14.3739 17.889 13.6351C18.49 12.8963 18.7601 12.009 18.6532 11.1248C18.5462 10.2406 18.0689 9.41429 17.3027 8.78704C16.8143 8.38609 16.2237 8.07908 15.5735 7.88811C14.9233 7.69714 14.2296 7.62697 13.5424 7.68264C12.8553 7.73832 12.1916 7.91846 11.5994 8.21009C11.0071 8.50172 10.5009 8.8976 10.1173 9.36921C9.73364 9.84082 9.48206 10.3764 9.38066 10.9375C9.27925 11.4986 9.33056 12.0711 9.53087 12.6139C9.73118 13.1568 10.0755 13.6564 10.5391 14.0768C11.0027 14.4971 11.574 14.8279 12.2118 15.0451ZM8.91164 7.32027C9.57985 6.77138 10.3731 6.33598 11.2462 6.03892C12.1193 5.74187 13.055 5.58897 14 5.58897C14.945 5.58897 15.8807 5.74187 16.7538 6.03892C17.6269 6.33598 18.4202 6.77138 19.0884 7.32027C19.7566 7.86916 20.2866 8.52079 20.6483 9.23795C21.0099 9.95511 21.196 10.7238 21.196 11.5C21.196 12.2762 21.0099 13.0449 20.6483 13.7621C20.2866 14.4792 19.7566 15.1308 19.0884 15.6797C17.7388 16.7883 15.9085 17.411 14 17.411C12.0915 17.411 10.2612 16.7883 8.91164 15.6797C7.56212 14.5712 6.80397 13.0677 6.80397 11.5C6.80397 9.9323 7.56212 8.4288 8.91164 7.32027ZM22.792 6.46927C22.9576 6.34096 23.0902 6.18667 23.1818 6.01552C23.2735 5.84437 23.3225 5.65985 23.3258 5.47288C23.3291 5.28591 23.2867 5.1003 23.2012 4.92703C23.1156 4.75376 22.9886 4.59635 22.8276 4.46413C22.6666 4.33191 22.475 4.22756 22.2641 4.15727C22.0531 4.08697 21.8272 4.05216 21.5995 4.05488C21.3719 4.05761 21.1473 4.09782 20.9389 4.17314C20.7306 4.24845 20.5427 4.35735 20.3865 4.49336C20.0828 4.75789 19.9164 5.10926 19.9229 5.47288C19.9293 5.8365 20.1081 6.18374 20.4211 6.44088C20.7342 6.69803 21.1569 6.84483 21.5995 6.85013C22.0422 6.85543 22.47 6.71881 22.792 6.46927Z" fill="white"/>
</svg>
