<svg width="26" height="22" viewBox="0 0 26 22" fill="none" xmlns="http://www.w3.org/2000/svg">
<path d="M24.96 0H1.04C0.46475 0 0 0.39325 0 0.88V21.12C0 21.6068 0.46475 22 1.04 22H24.96C25.5352 22 26 21.6068 26 21.12V0.88C26 0.39325 25.5352 0 24.96 0ZM19.9972 7.96675C20.007 8.096 20.007 8.23075 20.007 8.36275C20.007 12.3997 16.3735 17.05 9.73375 17.05C7.68625 17.05 5.78825 16.5468 4.18925 15.6805C4.48175 15.708 4.76125 15.719 5.06025 15.719C6.75025 15.719 8.30375 15.235 9.542 14.4155C7.956 14.388 6.6235 13.508 6.1685 12.298C6.72425 12.3668 7.22475 12.3668 7.79675 12.243C6.98011 12.1026 6.24609 11.7273 5.7194 11.1809C5.19271 10.6345 4.90583 9.95062 4.9075 9.2455V9.207C5.38525 9.43525 5.9475 9.5755 6.53575 9.59475C6.04124 9.31588 5.63569 8.93808 5.35506 8.49483C5.07443 8.05159 4.9274 7.55659 4.927 7.05375C4.927 6.4845 5.1025 5.96475 5.41775 5.51375C6.32418 6.45793 7.45527 7.23014 8.73751 7.78021C10.0197 8.33027 11.4244 8.64587 12.8602 8.7065C12.35 6.63025 14.183 4.95 16.3865 4.95C17.4265 4.95 18.3625 5.3185 19.0222 5.9125C19.838 5.78325 20.618 5.52475 21.3135 5.17825C21.0437 5.885 20.4782 6.48175 19.7275 6.8585C20.4555 6.7925 21.1575 6.622 21.8075 6.38275C21.3167 6.99325 20.7025 7.535 19.9972 7.96675Z" fill="white"/>
</svg>
