<svg width="13" height="15" viewBox="0 0 13 15" fill="none" xmlns="http://www.w3.org/2000/svg">
<path d="M8.89744 14V11.6073C8.9186 11.3125 8.88226 11.0162 8.79083 10.7379C8.6994 10.4597 8.55499 10.206 8.36718 9.99368C10.1385 9.77729 12 9.04156 12 5.66587C11.9999 4.80268 11.6969 3.97258 11.1538 3.3474C11.411 2.5922 11.3928 1.75746 11.1031 1.01657C11.1031 1.01657 10.4374 0.800174 8.89744 1.93159C7.60452 1.54754 6.24164 1.54754 4.94872 1.93159C3.40872 0.800174 2.74308 1.01657 2.74308 1.01657C2.45334 1.75746 2.43516 2.5922 2.69231 3.3474C2.1452 3.97722 1.84194 4.81482 1.84615 5.68442C1.84615 9.03538 3.70769 9.77111 5.47897 10.0122C5.29338 10.2224 5.15025 10.4731 5.05889 10.7479C4.96753 11.0227 4.92999 11.3156 4.94872 11.6073V14M4.94872 12.1452C2.12821 13.0726 2.12821 10.5996 1 10.2904L4.94872 12.1452Z" stroke="white" stroke-width="2" stroke-linecap="round" stroke-linejoin="round"/>
</svg>
